{
	"asset":{
		"copyright":"OCE-Cinna",
		"generator":"Khronos glTF Blender I/O v5.1.19",
		"version":"2.0"
	},
	"scene":0,
	"scenes":[
		{
			"name":"Scene",
			"nodes":[
				0
			]
		}
	],
	"nodes":[
		{
			"mesh":0,
			"name":"Sphere"
		}
	],
	"materials":[
		{
			"doubleSided":true,
			"name":"Material",
			"pbrMetallicRoughness":{
				"baseColorFactor":[
					0.8000074625015259,
					0.18124420940876007,
					0.026992298662662506,
					1
				],
				"metallicFactor":0,
				"roughnessFactor":0.5
			}
		}
	],
	"meshes":[
		{
			"name":"Sphere",
			"primitives":[
				{
					"attributes":{
						"POSITION":0,
						"NORMAL":1,
						"TEXCOORD_0":2
					},
					"indices":3,
					"material":0
				}
			]
		}
	],
	"accessors":[
		{
			"bufferView":0,
			"componentType":5126,
			"count":411592,
			"max":[
				3.296917676925659,
				0.5562992691993713,
				2.063594341278076
			],
			"min":[
				-3.296917676925659,
				-6.982852935791016,
				-2.0768778324127197
			],
			"type":"VEC3"
		},
		{
			"bufferView":1,
			"componentType":5126,
			"count":411592,
			"type":"VEC3"
		},
		{
			"bufferView":2,
			"componentType":5126,
			"count":411592,
			"type":"VEC2"
		},
		{
			"bufferView":3,
			"componentType":5125,
			"count":617520,
			"type":"SCALAR"
		}
	],
	"bufferViews":[
		{
			"buffer":0,
			"byteLength":4939104,
			"byteOffset":0,
			"target":34962
		},
		{
			"buffer":0,
			"byteLength":4939104,
			"byteOffset":4939104,
			"target":34962
		},
		{
			"buffer":0,
			"byteLength":3292736,
			"byteOffset":9878208,
			"target":34962
		},
		{
			"buffer":0,
			"byteLength":2470080,
			"byteOffset":13170944,
			"target":34963
		}
	],
	"buffers":[
		{
			"byteLength":15641024,
			"uri":"custombust.bin"
		}
	]
}
